<svg width="516" height="516" viewBox="0 0 516 516" fill="none" xmlns="http://www.w3.org/2000/svg">
<g opacity="0.15" clip-path="url(#clip0)">
<path d="M258 258C293.622 258 322.5 229.122 322.5 193.5C322.5 157.878 293.622 129 258 129C222.378 129 193.5 157.878 193.5 193.5C193.5 229.122 222.378 258 258 258Z" fill="#195E1F"/>
<path d="M279.5 258H236.5C219.4 258.019 203.005 264.821 190.913 276.913C178.821 289.005 172.02 305.399 172 322.5V365.5C172 371.202 174.266 376.671 178.298 380.703C182.33 384.735 187.798 387 193.5 387H322.5C328.203 387 333.671 384.735 337.703 380.703C341.735 376.671 344 371.202 344 365.5V322.5C343.981 305.399 337.179 289.005 325.088 276.913C312.996 264.821 296.601 258.019 279.5 258Z" fill="#195E1F"/>
<path d="M473.642 59.2862L463.115 101.397C430.357 58.5167 384.981 26.9846 333.37 11.2355C281.758 -4.5136 226.508 -3.68732 175.391 13.5981C124.273 30.8836 79.8604 63.7585 48.3991 107.599C16.9379 151.439 0.0112597 204.039 0 258H43C43.0111 212.871 57.219 168.89 83.6117 132.284C110.004 95.6775 147.244 68.3018 190.058 54.0334C232.871 39.765 279.089 39.327 322.165 52.7813C365.241 66.2357 402.993 92.9005 430.075 129H387V172H473C477.795 172 482.452 170.397 486.231 167.446C490.01 164.495 492.695 160.365 493.858 155.714L515.358 69.7137L473.642 59.2862Z" fill="#195E1F"/>
<path d="M473 258C472.989 303.129 458.781 347.11 432.388 383.716C405.996 420.322 368.756 447.698 325.942 461.966C283.129 476.235 236.911 476.673 193.835 463.219C150.759 449.764 113.007 423.099 85.9248 387H129V344H43C38.2052 344 33.5479 345.603 29.7687 348.554C25.9894 351.505 23.3051 355.634 22.1423 360.286L0.642334 446.286L42.3577 456.714L52.8846 414.603C85.6428 457.483 131.019 489.015 182.63 504.764C234.242 520.513 289.492 519.687 340.609 502.402C391.727 485.116 436.14 452.241 467.601 408.401C499.062 364.561 515.989 311.961 516 258H473Z" fill="#195E1F"/>
</g>
<defs>
<clipPath id="clip0">
<rect width="516" height="516" fill="white"/>
</clipPath>
</defs>
</svg>
