<svg width="516" height="516" viewBox="0 0 516 516" fill="none" xmlns="http://www.w3.org/2000/svg">
<g opacity="0.15" clip-path="url(#clip0)">
<path d="M496 344C496 427.947 427.948 496 344 496C260.053 496 192 427.947 192 344C192 260.053 260.053 192 344 192C427.948 192 496 260.053 496 344Z" stroke="#195E1F" stroke-width="40"/>
<path d="M333.249 301H408.5V258H365.5V236.5H322.499V259.075C309.437 261.728 297.825 269.139 289.92 279.871C282.014 290.603 278.378 303.89 279.718 317.152C281.057 330.414 287.277 342.705 297.169 351.639C307.061 360.574 319.92 365.513 333.249 365.5H354.75C357.601 365.5 360.335 366.633 362.351 368.649C364.367 370.665 365.5 373.399 365.5 376.25C365.5 379.101 364.367 381.835 362.351 383.852C360.335 385.868 357.601 387 354.75 387H279.499V430H322.499V451.5H365.5V428.925C378.562 426.273 390.174 418.861 398.079 408.129C405.985 397.397 409.621 384.11 408.281 370.848C406.942 357.586 400.722 345.295 390.83 336.361C380.938 327.427 368.079 322.487 354.75 322.5H333.249C330.398 322.5 327.664 321.368 325.648 319.352C323.632 317.335 322.499 314.601 322.499 311.75C322.499 308.899 323.632 306.165 325.648 304.149C327.664 302.133 330.398 301 333.249 301Z" fill="#195E1F"/>
<path d="M333.249 301H408.499V258H365.499V236.5H322.499V259.075C309.436 261.728 297.825 269.139 289.919 279.871C282.014 290.603 278.378 303.89 279.717 317.152C281.057 330.414 287.277 342.705 297.169 351.639C307.061 360.573 319.92 365.513 333.249 365.5H354.749C357.6 365.5 360.335 366.633 362.351 368.649C364.367 370.665 365.499 373.399 365.499 376.25C365.499 379.101 364.367 381.835 362.351 383.851C360.335 385.867 357.6 387 354.749 387H279.499V430H322.499V451.5H365.499V428.925C378.562 426.272 390.174 418.861 398.079 408.129C405.985 397.397 409.621 384.11 408.281 370.848C406.942 357.586 400.722 345.295 390.83 336.361C380.938 327.427 368.079 322.487 354.749 322.5H333.249C330.398 322.5 327.664 321.367 325.648 319.351C323.632 317.335 322.499 314.601 322.499 311.75C322.499 308.899 323.632 306.165 325.648 304.149C327.664 302.133 330.398 301 333.249 301Z" fill="#195E1F"/>
<path d="M494.5 0H408.5V43H438.584L362.812 103.619L289.116 66.7709C285.079 64.7531 280.51 64.0566 276.056 64.7801C271.601 65.5036 267.487 67.6105 264.297 70.8022L187.703 147.396L135.799 130.102C132.393 128.967 128.757 128.703 125.222 129.334C121.687 129.964 118.367 131.469 115.562 133.711L8.0625 219.711L34.9375 253.289L133.3 174.596L186.701 192.398C190.489 193.661 194.554 193.844 198.44 192.926C202.326 192.008 205.88 190.027 208.703 187.203L283.746 112.16L355.884 148.229C359.558 150.067 363.682 150.815 367.768 150.382C371.853 149.95 375.73 148.356 378.938 145.789L473 70.5388V107.5H516V21.5C516 15.7978 513.735 10.3292 509.703 6.2972C505.671 2.26517 500.202 0 494.5 0V0Z" fill="#195E1F"/>
</g>
<defs>
<clipPath id="clip0">
<rect width="516" height="516" fill="white"/>
</clipPath>
</defs>
</svg>
