<svg width="1440" height="1336" viewBox="0 0 1440 1336" fill="none" xmlns="http://www.w3.org/2000/svg">
<g opacity="0.1" clip-path="url(#clip0)">
<path d="M1362.1 28.2999C1290.2 69.2999 1289.2 119.7 1238 162.2C1163.8 223.8 1111.3 163.2 1000.5 218.9C908.7 265 927.9 315 832.8 362.3C745.3 405.9 714.1 370.9 615.4 413.4C509.3 459.1 525.9 507.8 446.6 536.7C307.8 587.4 210.1 455.4 79.3 501.5C56.3 509.6 28.6 524.5 0 554.2V1037.3C42 1034 84.1 1039.1 122.8 1058.5C213.8 1104 207.9 1189 302.6 1230.5C373 1261.4 414.1 1224.3 503 1247.8C589.9 1270.8 590.6 1324.4 695.6 1334.2C835 1347.2 843.3 1267.7 969.1 1251C1093.6 1234.5 1143.3 1268.2 1196 1221.7C1240.2 1182.6 1226.3 1138.9 1273.2 1091.7C1320.8 1043.8 1389.3 1034.4 1440 1034C1440 689.3 1440 344.6 1440 -0.100098C1420.4 3.6999 1392.1 11.1999 1362.1 28.2999Z" fill="#195E1F"/>
</g>
<defs>
<clipPath id="clip0">
<rect width="1440" height="1335.7" fill="white"/>
</clipPath>
</defs>
</svg>
