<svg width="1440" height="1337" viewBox="0 0 1440 1337" fill="none" xmlns="http://www.w3.org/2000/svg">
<path opacity="0.1" d="M1362.1 29.2999C1290.2 70.2999 1289.2 120.7 1238 163.2C1163.8 224.8 1111.3 164.2 1000.5 219.9C908.7 266 927.9 316 832.8 363.3C745.3 406.9 714.1 371.9 615.4 414.4C509.3 460.1 525.9 508.8 446.6 537.7C307.8 588.4 210.1 456.4 79.3 502.5C56.3 510.6 28.6 525.5 0 555.2V1038.3C42 1035 84.1 1040.1 122.8 1059.5C213.8 1105 207.9 1190 302.6 1231.5C373 1262.4 414.1 1225.3 503 1248.8C589.9 1271.8 590.6 1325.4 695.6 1335.2C835 1348.2 843.3 1268.7 969.1 1252C1093.6 1235.5 1143.3 1269.2 1196 1222.7C1240.2 1183.6 1226.3 1139.9 1273.2 1092.7C1320.8 1044.8 1389.3 1035.4 1440 1035C1440 690.3 1440 345.6 1440 0.899902C1420.4 4.6999 1392.1 12.1999 1362.1 29.2999Z" fill="url(#paint0_linear)"/>
<defs>
<linearGradient id="paint0_linear" x1="720" y1="0.899902" x2="720" y2="1336.63" gradientUnits="userSpaceOnUse">
<stop stop-color="#195E1F"/>
<stop offset="1" stop-color="#195E1F" stop-opacity="0"/>
</linearGradient>
</defs>
</svg>
