<svg width="114" height="42" viewBox="0 0 114 42" fill="none" xmlns="http://www.w3.org/2000/svg">
<g clip-path="url(#clip0)">
<path d="M48.9023 15.2965C48.9023 14.9938 49.0872 14.9119 49.3131 15.1144L56.3913 21.6976C56.6172 21.9002 56.8021 21.8182 56.8021 21.5155V15.5536C56.8021 15.2508 57.0507 15.0032 57.3551 15.0032H58.2329C58.5367 15.0032 58.7858 15.2508 58.7858 15.5536V26.5107C58.7858 26.8134 58.6006 26.9125 58.3743 26.7102L51.2798 20.1012C51.0538 19.8989 50.8687 19.981 50.8687 20.2838V26.2486C50.8687 26.5514 50.6199 26.799 50.3159 26.799H49.4551C49.1511 26.799 48.9023 26.5514 48.9023 26.2486V15.2965Z" fill="black"/>
<path d="M65.9742 22.3909C65.838 22.6617 65.9754 22.8832 66.2798 22.8832H68.6624C68.9662 22.8832 69.1035 22.6617 68.9679 22.3909L67.7179 19.9022C67.5822 19.6314 67.3599 19.6314 67.2237 19.9022L65.9742 22.3909ZM70.4539 25.3334C70.3182 25.0627 69.958 24.8411 69.6542 24.8411H65.3051C65.0013 24.8411 64.6393 25.0619 64.5019 25.3317L63.9941 26.3256C63.8561 26.5954 63.4947 26.8162 63.1909 26.8162H62.0903C61.7865 26.8162 61.6491 26.5946 61.7847 26.3238L67.2237 15.2062C67.3599 14.9355 67.5822 14.9355 67.7179 15.2062L73.1574 26.3238C73.293 26.5946 73.1557 26.8162 72.8513 26.8162H71.7512C71.4474 26.8162 71.0871 26.5946 70.9515 26.3238L70.4539 25.3334Z" fill="black"/>
<path d="M73.6982 15.5499C73.6982 15.2472 73.9473 14.9995 74.2511 14.9995H83.0457C83.35 14.9995 83.5986 15.2472 83.5986 15.5499V16.4241C83.5986 16.7268 83.35 16.9745 83.0457 16.9745H80.2014C79.8976 16.9745 79.649 17.2222 79.649 17.5249V26.2652C79.649 26.5678 79.3999 26.8155 79.0961 26.8155H78.2183C77.914 26.8155 77.6654 26.5678 77.6654 26.2652V17.5249C77.6654 17.2222 77.4164 16.9745 77.1125 16.9745H74.2511C73.9473 16.9745 73.6982 16.7268 73.6982 16.4241V15.5499Z" fill="black"/>
<path d="M86.6191 15.5499C86.6191 15.2472 86.8677 14.9995 87.1715 14.9995H88.0328C88.3366 14.9995 88.5851 15.2472 88.5851 15.5499V26.2652C88.5851 26.5678 88.3366 26.8155 88.0328 26.8155H87.1715C86.8677 26.8155 86.6191 26.5678 86.6191 26.2652V15.5499Z" fill="black"/>
<path d="M93.0637 14.9995C93.368 14.9995 93.7283 15.2209 93.8639 15.4915L97.0964 21.9138C97.2326 22.1845 97.4555 22.1845 97.5917 21.9138L100.824 15.4915C100.96 15.2209 101.321 14.9995 101.624 14.9995H102.725C103.029 14.9995 103.166 15.221 103.03 15.4918L97.5912 26.6114C97.4555 26.8821 97.2326 26.8821 97.097 26.6114L91.658 15.4918C91.5218 15.221 91.6597 14.9995 91.9636 14.9995H93.0637Z" fill="black"/>
<path d="M113.447 14.9995C113.752 14.9995 114 15.2472 114 15.5499V16.4241C114 16.7268 113.752 16.9745 113.447 16.9745H108.619C108.316 16.9745 108.067 17.2222 108.067 17.5249V19.3867C108.067 19.6894 108.316 19.9371 108.619 19.9371H113.447C113.752 19.9371 114 20.1848 114 20.4875V21.3446C114 21.6473 113.752 21.895 113.447 21.895H108.619C108.316 21.895 108.067 22.1427 108.067 22.4454V24.2901C108.067 24.5928 108.316 24.8405 108.619 24.8405H113.447C113.752 24.8405 114 25.0882 114 25.3909V26.2652C114 26.5678 113.752 26.8155 113.447 26.8155H106.653C106.349 26.8155 106.101 26.5678 106.101 26.2652V15.5499C106.101 15.2472 106.349 14.9995 106.653 14.9995H113.447Z" fill="black"/>
<path d="M41.6958 20.4708L21.2877 0.149751C21.0872 -0.049917 20.7591 -0.049917 20.5585 0.149751L0.150393 20.4708C-0.050131 20.6705 -0.050131 20.9972 0.150393 21.1968L20.5585 41.5179C20.7591 41.7176 21.0872 41.7176 21.2877 41.5179L41.6958 21.1968C41.8963 20.9972 41.8963 20.6705 41.6958 20.4708Z" fill="black"/>
<path d="M13.055 31.7357C13.055 32.0181 12.8909 32.0857 12.6904 31.8861L5.26266 24.4901C5.06219 24.2904 5.06219 23.9636 5.26266 23.764L12.6904 16.3679C12.8909 16.1683 13.055 16.2359 13.055 16.5183V31.7357Z" fill="#F9F8F4"/>
<path d="M23.704 23.7425C23.704 24.0249 23.54 24.0927 23.3394 23.893L17.6749 18.2524C17.4743 18.0528 17.4743 17.7261 17.6749 17.5264L23.3394 11.886C23.54 11.6863 23.704 11.754 23.704 12.0364V23.7425Z" fill="#F9F8F4"/>
<path d="M21.2902 1.95102C21.0897 1.75135 20.7616 1.75135 20.561 1.95102L1.96143 20.4712C1.7609 20.6709 1.7609 20.9975 1.96143 21.1972L3.63479 22.8634C3.83531 23.063 4.16343 23.063 4.36396 22.8634L12.9708 14.2933C13.1713 14.0937 13.4995 14.0937 13.6999 14.2933L16.0429 16.6263C16.2434 16.826 16.5716 16.826 16.7721 16.6263L23.5989 9.82875C23.7995 9.62913 24.1275 9.62913 24.3281 9.82875L37.4529 22.8976C37.6535 23.0972 37.9815 23.0972 38.1821 22.8976L39.8897 21.1972C40.0902 20.9975 40.0902 20.6709 39.8897 20.4712L21.2902 1.95102Z" fill="#195E1F"/>
</g>
<defs>
<clipPath id="clip0">
<rect width="114" height="42" fill="white"/>
</clipPath>
</defs>
</svg>
