<svg width="114" height="42" viewBox="0 0 114 42" fill="none" xmlns="http://www.w3.org/2000/svg">
<g clip-path="url(#clip0)">
<path d="M48.9023 15.2964C48.9023 14.9936 49.0872 14.9117 49.3131 15.1143L56.3913 21.6975C56.6172 21.9 56.8021 21.8181 56.8021 21.5154V15.5534C56.8021 15.2507 57.0507 15.0031 57.3551 15.0031H58.2329C58.5367 15.0031 58.7858 15.2507 58.7858 15.5534V26.5106C58.7858 26.8133 58.6006 26.9124 58.3743 26.7101L51.2798 20.1011C51.0538 19.8988 50.8687 19.9809 50.8687 20.2837V26.2485C50.8687 26.5512 50.6199 26.7989 50.3159 26.7989H49.4551C49.1511 26.7989 48.9023 26.5512 48.9023 26.2485V15.2964Z" fill="white"/>
<path d="M65.9742 22.3908C65.838 22.6616 65.9754 22.8831 66.2798 22.8831H68.6624C68.9662 22.8831 69.1035 22.6616 68.9679 22.3908L67.7179 19.902C67.5822 19.6313 67.3599 19.6313 67.2237 19.902L65.9742 22.3908ZM70.4539 25.3333C70.3182 25.0625 69.958 24.841 69.6542 24.841H65.3051C65.0013 24.841 64.6393 25.0618 64.5019 25.3316L63.9941 26.3254C63.8561 26.5953 63.4947 26.816 63.1909 26.816H62.0903C61.7865 26.816 61.6491 26.5945 61.7847 26.3237L67.2237 15.2061C67.3599 14.9354 67.5822 14.9354 67.7179 15.2061L73.1574 26.3237C73.293 26.5945 73.1557 26.816 72.8513 26.816H71.7512C71.4474 26.816 71.0871 26.5945 70.9515 26.3237L70.4539 25.3333Z" fill="white"/>
<path d="M73.6982 15.55C73.6982 15.2473 73.9473 14.9996 74.2511 14.9996H83.0457C83.35 14.9996 83.5986 15.2473 83.5986 15.55V16.4242C83.5986 16.727 83.35 16.9747 83.0457 16.9747H80.2014C79.8976 16.9747 79.649 17.2223 79.649 17.525V26.2653C79.649 26.568 79.3999 26.8157 79.0961 26.8157H78.2183C77.914 26.8157 77.6654 26.568 77.6654 26.2653V17.525C77.6654 17.2223 77.4164 16.9747 77.1125 16.9747H74.2511C73.9473 16.9747 73.6982 16.727 73.6982 16.4242V15.55Z" fill="white"/>
<path d="M86.6191 15.55C86.6191 15.2473 86.8677 14.9996 87.1715 14.9996H88.0328C88.3366 14.9996 88.5851 15.2473 88.5851 15.55V26.2653C88.5851 26.568 88.3366 26.8157 88.0328 26.8157H87.1715C86.8677 26.8157 86.6191 26.568 86.6191 26.2653V15.55Z" fill="white"/>
<path d="M93.0637 14.9996C93.368 14.9996 93.7283 15.221 93.8639 15.4917L97.0964 21.9139C97.2326 22.1846 97.4555 22.1846 97.5917 21.9139L100.824 15.4917C100.96 15.221 101.321 14.9996 101.624 14.9996H102.725C103.029 14.9996 103.166 15.2212 103.03 15.4919L97.5912 26.6115C97.4555 26.8822 97.2326 26.8822 97.097 26.6115L91.658 15.4919C91.5218 15.2212 91.6597 14.9996 91.9636 14.9996H93.0637Z" fill="white"/>
<path d="M113.447 14.9996C113.752 14.9996 114 15.2473 114 15.55V16.4242C114 16.727 113.752 16.9747 113.447 16.9747H108.619C108.316 16.9747 108.067 17.2223 108.067 17.525V19.3868C108.067 19.6895 108.316 19.9372 108.619 19.9372H113.447C113.752 19.9372 114 20.1849 114 20.4876V21.3447C114 21.6474 113.752 21.8951 113.447 21.8951H108.619C108.316 21.8951 108.067 22.1428 108.067 22.4455V24.2902C108.067 24.5929 108.316 24.8406 108.619 24.8406H113.447C113.752 24.8406 114 25.0883 114 25.391V26.2653C114 26.568 113.752 26.8157 113.447 26.8157H106.653C106.349 26.8157 106.101 26.568 106.101 26.2653V15.55C106.101 15.2473 106.349 14.9996 106.653 14.9996H113.447Z" fill="white"/>
<path d="M41.6958 20.4708L21.2877 0.149751C21.0872 -0.049917 20.7591 -0.049917 20.5585 0.149751L0.150393 20.4708C-0.050131 20.6705 -0.050131 20.9972 0.150393 21.1968L20.5585 41.5179C20.7591 41.7176 21.0872 41.7176 21.2877 41.5179L41.6958 21.1968C41.8963 20.9972 41.8963 20.6705 41.6958 20.4708Z" fill="white"/>
<path d="M13.055 31.7357C13.055 32.0181 12.8909 32.0857 12.6904 31.8861L5.26266 24.4901C5.06219 24.2904 5.06219 23.9636 5.26266 23.764L12.6904 16.3679C12.8909 16.1683 13.055 16.2359 13.055 16.5183V31.7357Z" fill="#195E1F"/>
<path d="M23.704 23.7424C23.704 24.0248 23.54 24.0925 23.3394 23.8929L17.6749 18.2523C17.4743 18.0526 17.4743 17.726 17.6749 17.5263L23.3394 11.8859C23.54 11.6862 23.704 11.7539 23.704 12.0363V23.7424Z" fill="#195E1F"/>
<path d="M21.2902 1.95114C21.0897 1.75147 20.7616 1.75147 20.561 1.95114L1.96143 20.4713C1.7609 20.671 1.7609 20.9976 1.96143 21.1974L3.63479 22.8635C3.83531 23.0631 4.16343 23.0631 4.36396 22.8635L12.9708 14.2935C13.1713 14.0938 13.4995 14.0938 13.6999 14.2935L16.0429 16.6264C16.2434 16.8261 16.5716 16.8261 16.7721 16.6264L23.5989 9.82887C23.7995 9.62926 24.1275 9.62926 24.3281 9.82887L37.4529 22.8977C37.6535 23.0974 37.9815 23.0974 38.1821 22.8977L39.8897 21.1974C40.0902 20.9976 40.0902 20.671 39.8897 20.4713L21.2902 1.95114Z" fill="#195E1F"/>
</g>
<defs>
<clipPath id="clip0">
<rect width="114" height="42" fill="white"/>
</clipPath>
</defs>
</svg>
