<svg width="516" height="516" viewBox="0 0 516 516" fill="none" xmlns="http://www.w3.org/2000/svg">
<g opacity="0.15" clip-path="url(#clip0)">
<path d="M258 129C293.622 129 322.5 100.122 322.5 64.5C322.5 28.8776 293.622 0 258 0C222.378 0 193.5 28.8776 193.5 64.5C193.5 100.122 222.378 129 258 129Z" fill="#195E1F"/>
<path d="M279.501 129H236.501C219.4 129.019 203.005 135.821 190.913 147.913C178.821 160.005 172.02 176.399 172 193.5V236.5C172 242.202 174.266 247.671 178.298 251.703C182.33 255.735 187.798 258 193.5 258H322.501C328.203 258 333.671 255.735 337.703 251.703C341.735 247.671 344.001 242.202 344.001 236.5V193.5C343.981 176.4 337.179 160.005 325.087 147.914C312.995 135.822 296.601 129.02 279.501 129Z" fill="#195E1F"/>
<path d="M430 387C465.623 387 494.5 358.122 494.5 322.5C494.5 286.878 465.623 258 430 258C394.378 258 365.5 286.878 365.5 322.5C365.5 358.122 394.378 387 430 387Z" fill="#195E1F"/>
<path d="M451.5 365.5C440.047 365.505 428.8 362.459 418.914 356.676C409.029 350.892 400.863 342.58 395.256 332.594C389.648 322.607 386.803 311.307 387.011 299.857C387.219 288.406 390.474 277.217 396.441 267.441C388.103 272.52 381.028 279.426 375.748 287.638C370.468 295.85 367.122 305.154 365.961 314.848C364.801 324.541 365.857 334.372 369.05 343.598C372.242 352.824 377.488 361.205 384.391 368.109C391.295 375.012 399.676 380.258 408.902 383.45C418.128 386.643 427.959 387.699 437.652 386.538C447.346 385.378 456.65 382.032 464.862 376.752C473.074 371.472 479.98 364.396 485.059 356.059C474.959 362.245 463.344 365.513 451.5 365.5Z" fill="#195E1F"/>
<path d="M451.499 387H408.499C391.399 387.02 375.005 393.822 362.913 405.914C350.821 418.005 344.019 434.4 344 451.5V494.5C344 500.202 346.265 505.671 350.297 509.703C354.329 513.735 359.797 516 365.5 516H494.499C500.202 516 505.67 513.735 509.702 509.703C513.734 505.671 515.999 500.202 515.999 494.5V451.5C515.98 434.4 509.178 418.005 497.086 405.914C484.994 393.822 468.6 387.02 451.499 387Z" fill="#195E1F"/>
<path d="M387 494.5V451.5C387.019 434.4 393.821 418.005 405.913 405.914C418.005 393.822 434.399 387.02 451.5 387H408.5C391.399 387.02 375.005 393.822 362.913 405.914C350.821 418.005 344.019 434.4 344 451.5V494.5C344 500.202 346.265 505.671 350.297 509.703C354.329 513.735 359.797 516 365.5 516H408.5C402.797 516 397.329 513.735 393.297 509.703C389.265 505.671 387 500.202 387 494.5Z" fill="#195E1F"/>
<path d="M85.9995 387C121.622 387 150.499 358.122 150.499 322.5C150.499 286.878 121.622 258 85.9995 258C50.3771 258 21.4995 286.878 21.4995 322.5C21.4995 358.122 50.3771 387 85.9995 387Z" fill="#195E1F"/>
<path d="M107.5 365.5C96.0476 365.505 84.8001 362.459 74.9148 356.676C65.0295 350.892 56.8633 342.58 51.2561 332.594C45.6489 322.607 42.8031 311.307 43.0115 299.857C43.2199 288.406 46.4748 277.217 52.4417 267.441C44.1039 272.52 37.0283 279.426 31.7484 287.638C26.4686 295.85 23.1223 305.154 21.9619 314.848C20.8016 324.541 21.8575 334.372 25.05 343.598C28.2426 352.824 33.4884 361.205 40.3918 368.109C47.2952 375.012 55.676 380.258 64.9022 383.45C74.1284 386.643 83.959 387.699 93.6528 386.538C103.346 385.378 112.65 382.032 120.862 376.752C129.074 371.472 135.98 364.396 141.059 356.059C130.96 362.245 119.344 365.513 107.5 365.5Z" fill="#195E1F"/>
<path d="M107.5 387H64.5C47.3997 387.02 31.0054 393.822 18.9136 405.914C6.82183 418.005 0.0199156 434.4 0 451.5L0 494.5C0 500.202 2.26517 505.671 6.2972 509.703C10.3292 513.735 15.7978 516 21.5 516H150.5C156.202 516 161.671 513.735 165.703 509.703C169.735 505.671 172 500.202 172 494.5V451.5C171.98 434.4 165.178 418.005 153.086 405.914C140.995 393.822 124.6 387.02 107.5 387Z" fill="#195E1F"/>
<path d="M43 494.5V451.5C43.0199 434.4 49.8218 418.005 61.9136 405.914C74.0054 393.822 90.3997 387.02 107.5 387H64.5C47.3997 387.02 31.0054 393.822 18.9136 405.914C6.82183 418.005 0.0199156 434.4 0 451.5L0 494.5C0 500.202 2.26517 505.671 6.29721 509.703C10.3292 513.735 15.7978 516 21.5 516H64.5C58.7979 516 53.3292 513.735 49.2972 509.703C45.2652 505.671 43 500.202 43 494.5Z" fill="#195E1F"/>
<path d="M334.427 390.612L279.499 353.995V279.5H236.499V353.995L181.575 390.612L205.427 426.388L257.999 391.34L310.575 426.388L334.427 390.612Z" fill="#195E1F"/>
</g>
<defs>
<clipPath id="clip0">
<rect width="516" height="516" fill="white"/>
</clipPath>
</defs>
</svg>
