<svg width="149" height="153" viewBox="0 0 149 153" fill="none" xmlns="http://www.w3.org/2000/svg">
<g filter="url(#filter0_ddii)">
<path d="M4 75C4 56.3872 4 47.0808 6.44717 39.5492C11.3931 24.3273 23.3273 12.3931 38.5492 7.44717C46.0808 5 55.3872 5 74 5C92.6128 5 101.919 5 109.451 7.44717C124.673 12.3931 136.607 24.3273 141.553 39.5492C144 47.0808 144 56.3872 144 75C144 93.6128 144 102.919 141.553 110.451C136.607 125.673 124.673 137.607 109.451 142.553C101.919 145 92.6128 145 74 145C55.3872 145 46.0808 145 38.5492 142.553C23.3273 137.607 11.3931 125.673 6.44717 110.451C4 102.919 4 93.6128 4 75Z" fill="white"/>
<path d="M5.25 75C5.25 56.2899 5.26542 47.2313 7.63599 39.9354C12.4582 25.0941 24.0941 13.4582 38.9354 8.63599C46.2313 6.26542 55.2899 6.25 74 6.25C92.7101 6.25 101.769 6.26542 109.065 8.63599C123.906 13.4582 135.542 25.0941 140.364 39.9354C142.735 47.2313 142.75 56.2899 142.75 75C142.75 93.7101 142.735 102.769 140.364 110.065C135.542 124.906 123.906 136.542 109.065 141.364C101.769 143.735 92.7101 143.75 74 143.75C55.2899 143.75 46.2313 143.735 38.9354 141.364C24.0941 136.542 12.4582 124.906 7.63599 110.065C5.26542 102.769 5.25 93.7101 5.25 75Z" stroke="url(#paint0_linear)" stroke-opacity="0.8" stroke-width="2.5"/>
</g>
<path d="M102.46 40H45.5396C45.0085 39.9999 44.4932 40.1808 44.0787 40.5127C43.6642 40.8447 43.3751 41.308 43.2591 41.8262L39 56.3333C39 58.1898 39.7375 59.9703 41.0503 61.2831C42.363 62.5958 44.1435 63.3333 46 63.3333C47.8565 63.3333 49.637 62.5958 50.9497 61.2831C52.2625 59.9703 53 58.1898 53 56.3333C53 58.1898 53.7375 59.9703 55.0503 61.2831C56.363 62.5958 58.1435 63.3333 60 63.3333C61.8565 63.3333 63.637 62.5958 64.9497 61.2831C66.2625 59.9703 67 58.1898 67 56.3333C67 58.1898 67.7375 59.9703 69.0503 61.2831C70.363 62.5958 72.1435 63.3333 74 63.3333C75.8565 63.3333 77.637 62.5958 78.9497 61.2831C80.2625 59.9703 81 58.1898 81 56.3333C81 58.1898 81.7375 59.9703 83.0503 61.2831C84.363 62.5958 86.1435 63.3333 88 63.3333C89.8565 63.3333 91.637 62.5958 92.9497 61.2831C94.2625 59.9703 95 58.1898 95 56.3333C95 58.1898 95.7375 59.9703 97.0503 61.2831C98.363 62.5958 100.143 63.3333 102 63.3333C103.857 63.3333 105.637 62.5958 106.95 61.2831C108.263 59.9703 109 58.1898 109 56.3333L104.741 41.8262C104.625 41.308 104.336 40.8447 103.921 40.5127C103.507 40.1808 102.992 39.9999 102.46 40V40Z" stroke="#195E1F" stroke-width="3" stroke-linecap="round" stroke-linejoin="round"/>
<path d="M43.6667 70.3335V110" stroke="#195E1F" stroke-width="3" stroke-linecap="round" stroke-linejoin="round"/>
<path d="M104.333 70.3335V110" stroke="#195E1F" stroke-width="3" stroke-linecap="round" stroke-linejoin="round"/>
<path d="M104.333 98.3335H43.6667" stroke="#195E1F" stroke-width="3" stroke-linecap="round" stroke-linejoin="round"/>
<path d="M60 98.3335C63.866 98.3335 67 95.1995 67 91.3335C67 87.4675 63.866 84.3335 60 84.3335C56.134 84.3335 53 87.4675 53 91.3335C53 95.1995 56.134 98.3335 60 98.3335Z" stroke="#195E1F" stroke-width="3" stroke-linecap="round" stroke-linejoin="round"/>
<path d="M60 84.3335L64.6667 77.3335" stroke="#195E1F" stroke-width="3" stroke-linecap="round" stroke-linejoin="round"/>
<path d="M74 98.3335C77.866 98.3335 81 95.1995 81 91.3335C81 87.4675 77.866 84.3335 74 84.3335C70.134 84.3335 67 87.4675 67 91.3335C67 95.1995 70.134 98.3335 74 98.3335Z" stroke="#195E1F" stroke-width="3" stroke-linecap="round" stroke-linejoin="round"/>
<path d="M74 84.3335L78.6667 77.3335" stroke="#195E1F" stroke-width="3" stroke-linecap="round" stroke-linejoin="round"/>
<path d="M88 98.3335C91.866 98.3335 95 95.1995 95 91.3335C95 87.4675 91.866 84.3335 88 84.3335C84.134 84.3335 81 87.4675 81 91.3335C81 95.1995 84.134 98.3335 88 98.3335Z" stroke="#195E1F" stroke-width="3" stroke-linecap="round" stroke-linejoin="round"/>
<path d="M88 84.3335L92.6667 77.3335" stroke="#195E1F" stroke-width="3" stroke-linecap="round" stroke-linejoin="round"/>
<defs>
<filter id="filter0_ddii" x="0" y="0" width="149" height="153" filterUnits="userSpaceOnUse" color-interpolation-filters="sRGB">
<feFlood flood-opacity="0" result="BackgroundImageFix"/>
<feColorMatrix in="SourceAlpha" type="matrix" values="0 0 0 0 0 0 0 0 0 0 0 0 0 0 0 0 0 0 127 0"/>
<feMorphology radius="1" operator="dilate" in="SourceAlpha" result="effect1_dropShadow"/>
<feOffset dx="1" dy="4"/>
<feGaussianBlur stdDeviation="1.5"/>
<feColorMatrix type="matrix" values="0 0 0 0 0.0980392 0 0 0 0 0.368627 0 0 0 0 0.121569 0 0 0 0.8 0"/>
<feBlend mode="normal" in2="BackgroundImageFix" result="effect1_dropShadow"/>
<feColorMatrix in="SourceAlpha" type="matrix" values="0 0 0 0 0 0 0 0 0 0 0 0 0 0 0 0 0 0 127 0"/>
<feMorphology radius="1" operator="erode" in="SourceAlpha" result="effect2_dropShadow"/>
<feOffset dy="-1"/>
<feGaussianBlur stdDeviation="2.5"/>
<feColorMatrix type="matrix" values="0 0 0 0 0.956863 0 0 0 0 0.815686 0 0 0 0 0.0666667 0 0 0 1 0"/>
<feBlend mode="normal" in2="effect1_dropShadow" result="effect2_dropShadow"/>
<feBlend mode="normal" in="SourceGraphic" in2="effect2_dropShadow" result="shape"/>
<feColorMatrix in="SourceAlpha" type="matrix" values="0 0 0 0 0 0 0 0 0 0 0 0 0 0 0 0 0 0 127 0" result="hardAlpha"/>
<feOffset dy="4"/>
<feGaussianBlur stdDeviation="2"/>
<feComposite in2="hardAlpha" operator="arithmetic" k2="-1" k3="1"/>
<feColorMatrix type="matrix" values="0 0 0 0 0.133333 0 0 0 0 0.388235 0 0 0 0 0.137255 0 0 0 1 0"/>
<feBlend mode="normal" in2="shape" result="effect3_innerShadow"/>
<feColorMatrix in="SourceAlpha" type="matrix" values="0 0 0 0 0 0 0 0 0 0 0 0 0 0 0 0 0 0 127 0" result="hardAlpha"/>
<feOffset dy="-4"/>
<feGaussianBlur stdDeviation="1.5"/>
<feComposite in2="hardAlpha" operator="arithmetic" k2="-1" k3="1"/>
<feColorMatrix type="matrix" values="0 0 0 0 0.956863 0 0 0 0 0.815686 0 0 0 0 0.0666667 0 0 0 1 0"/>
<feBlend mode="normal" in2="effect3_innerShadow" result="effect4_innerShadow"/>
</filter>
<linearGradient id="paint0_linear" x1="74" y1="5" x2="74" y2="145" gradientUnits="userSpaceOnUse">
<stop offset="0.0364583" stop-color="#195E1F" stop-opacity="0.85"/>
<stop offset="1" stop-color="#F3CF10"/>
</linearGradient>
</defs>
</svg>
