<svg width="240" height="240" viewBox="0 0 240 240" fill="none" xmlns="http://www.w3.org/2000/svg">
<g filter="url(#filter0_d)">
<path d="M50 95C50 76.3872 50 67.0808 52.4472 59.5492C57.3931 44.3273 69.3273 32.3931 84.5492 27.4472C92.0808 25 101.387 25 120 25C138.613 25 147.919 25 155.451 27.4472C170.673 32.3931 182.607 44.3273 187.553 59.5492C190 67.0808 190 76.3872 190 95C190 113.613 190 122.919 187.553 130.451C182.607 145.673 170.673 157.607 155.451 162.553C147.919 165 138.613 165 120 165C101.387 165 92.0808 165 84.5492 162.553C69.3273 157.607 57.3931 145.673 52.4472 130.451C50 122.919 50 113.613 50 95Z" fill="white"/>
</g>
<path d="M100 77.5C105.523 77.5 110 73.0228 110 67.5C110 61.9772 105.523 57.5 100 57.5C94.4772 57.5 90 61.9772 90 67.5C90 73.0228 94.4772 77.5 100 77.5Z" stroke="#195E1F" stroke-width="5" stroke-linecap="round" stroke-linejoin="round"/>
<path d="M115.183 91.2927C113.264 87.9484 110.293 85.3317 106.733 83.849C103.174 82.3663 99.2239 82.1006 95.4977 83.0933C91.7715 84.0859 88.4773 86.2813 86.127 89.3384C83.7766 92.3955 82.5016 96.1432 82.5 99.9994V107.499H90L92.5 132.499H107.5L108.577 121.723" stroke="#195E1F" stroke-width="5" stroke-linecap="round" stroke-linejoin="round"/>
<path d="M137.5 132.5C148.546 132.5 157.5 123.546 157.5 112.5C157.5 101.454 148.546 92.5 137.5 92.5C126.454 92.5 117.5 101.454 117.5 112.5C117.5 123.546 126.454 132.5 137.5 132.5Z" stroke="#195E1F" stroke-width="5" stroke-linecap="round" stroke-linejoin="round"/>
<path d="M137.5 122.5V112.5" stroke="#195E1F" stroke-width="5" stroke-linecap="round" stroke-linejoin="round"/>
<path d="M137.5 102.7C137.253 102.7 137.011 102.774 136.806 102.911C136.6 103.048 136.44 103.243 136.345 103.472C136.251 103.7 136.226 103.952 136.274 104.194C136.322 104.437 136.441 104.659 136.616 104.834C136.791 105.009 137.014 105.128 137.256 105.176C137.499 105.224 137.75 105.2 137.978 105.105C138.207 105.01 138.402 104.85 138.539 104.645C138.677 104.439 138.75 104.197 138.75 103.95C138.75 103.786 138.718 103.623 138.656 103.471C138.593 103.319 138.501 103.181 138.385 103.065C138.269 102.949 138.131 102.857 137.979 102.794C137.827 102.732 137.664 102.7 137.5 102.7" stroke="#195E1F" stroke-width="5" stroke-linecap="round" stroke-linejoin="round"/>
<path d="M100 82.5V102.5" stroke="#195E1F" stroke-width="5" stroke-linecap="round" stroke-linejoin="round"/>
<defs>
<filter id="filter0_d" x="0" y="0" width="240" height="240" filterUnits="userSpaceOnUse" color-interpolation-filters="sRGB">
<feFlood flood-opacity="0" result="BackgroundImageFix"/>
<feColorMatrix in="SourceAlpha" type="matrix" values="0 0 0 0 0 0 0 0 0 0 0 0 0 0 0 0 0 0 127 0"/>
<feOffset dy="25"/>
<feGaussianBlur stdDeviation="25"/>
<feColorMatrix type="matrix" values="0 0 0 0 0 0 0 0 0 0 0 0 0 0 0 0 0 0 0.1 0"/>
<feBlend mode="normal" in2="BackgroundImageFix" result="effect1_dropShadow"/>
<feBlend mode="normal" in="SourceGraphic" in2="effect1_dropShadow" result="shape"/>
</filter>
</defs>
</svg>
