<svg width="240" height="240" viewBox="0 0 240 240" fill="none" xmlns="http://www.w3.org/2000/svg">
<g filter="url(#filter0_d)">
<path d="M50 95C50 76.3872 50 67.0808 52.4472 59.5492C57.3931 44.3273 69.3273 32.3931 84.5492 27.4472C92.0808 25 101.387 25 120 25C138.613 25 147.919 25 155.451 27.4472C170.673 32.3931 182.607 44.3273 187.553 59.5492C190 67.0808 190 76.3872 190 95C190 113.613 190 122.919 187.553 130.451C182.607 145.673 170.673 157.607 155.451 162.553C147.919 165 138.613 165 120 165C101.387 165 92.0808 165 84.5492 162.553C69.3273 157.607 57.3931 145.673 52.4472 130.451C50 122.919 50 113.613 50 95Z" fill="white"/>
</g>
<g clip-path="url(#clip0)">
<path d="M91.25 120C96.0825 120 100 116.082 100 111.25C100 106.418 96.0825 102.5 91.25 102.5C86.4175 102.5 82.5 106.418 82.5 111.25C82.5 116.082 86.4175 120 91.25 120Z" stroke="#195E1F" stroke-width="5" stroke-linecap="round" stroke-linejoin="round"/>
<path d="M148.75 120C153.582 120 157.5 116.082 157.5 111.25C157.5 106.418 153.582 102.5 148.75 102.5C143.918 102.5 140 106.418 140 111.25C140 116.082 143.918 120 148.75 120Z" stroke="#195E1F" stroke-width="5" stroke-linecap="round" stroke-linejoin="round"/>
<path d="M120 120C124.832 120 128.75 116.082 128.75 111.25C128.75 106.418 124.832 102.5 120 102.5C115.168 102.5 111.25 106.418 111.25 111.25C111.25 116.082 115.168 120 120 120Z" stroke="#195E1F" stroke-width="5" stroke-linecap="round" stroke-linejoin="round"/>
<path d="M105.627 132.5C104.817 130.304 103.514 128.322 101.818 126.708C100.121 125.095 98.0766 123.893 95.8418 123.195C93.607 122.497 91.2417 122.322 88.9284 122.683C86.6152 123.044 84.4158 123.931 82.5 125.277" stroke="#195E1F" stroke-width="5" stroke-linecap="round" stroke-linejoin="round"/>
<path d="M134.376 132.501C135.185 130.304 136.488 128.322 138.184 126.708C139.881 125.095 141.925 123.893 144.159 123.195C146.394 122.497 148.759 122.322 151.072 122.683C153.385 123.044 155.584 123.931 157.5 125.277" stroke="#195E1F" stroke-width="5" stroke-linecap="round" stroke-linejoin="round"/>
<path d="M134.377 132.5C133.288 129.565 131.327 127.033 128.757 125.245C126.187 123.457 123.131 122.498 120 122.498C116.869 122.498 113.813 123.457 111.243 125.245C108.673 127.033 106.712 129.565 105.624 132.5" stroke="#195E1F" stroke-width="5" stroke-linecap="round" stroke-linejoin="round"/>
<path d="M127.5 92.5C127.5 92.5 130 80 140 77.5" stroke="#195E1F" stroke-width="5" stroke-linecap="round" stroke-linejoin="round"/>
<path d="M147.5 75H157.5" stroke="#195E1F" stroke-width="5" stroke-linecap="round" stroke-linejoin="round"/>
<path d="M152.5 70V80" stroke="#195E1F" stroke-width="5" stroke-linecap="round" stroke-linejoin="round"/>
<path d="M112.5 92.5C112.5 92.5 110 80 100 77.5" stroke="#195E1F" stroke-width="5" stroke-linecap="round" stroke-linejoin="round"/>
<path d="M92.5 75H82.5" stroke="#195E1F" stroke-width="5" stroke-linecap="round" stroke-linejoin="round"/>
<path d="M87.5 70V80" stroke="#195E1F" stroke-width="5" stroke-linecap="round" stroke-linejoin="round"/>
<path d="M115 62.5H125" stroke="#195E1F" stroke-width="5" stroke-linecap="round" stroke-linejoin="round"/>
<path d="M120 57.5V67.5" stroke="#195E1F" stroke-width="5" stroke-linecap="round" stroke-linejoin="round"/>
<path d="M120 92.5V77.5" stroke="#195E1F" stroke-width="5" stroke-linecap="round" stroke-linejoin="round"/>
</g>
<defs>
<filter id="filter0_d" x="0" y="0" width="240" height="240" filterUnits="userSpaceOnUse" color-interpolation-filters="sRGB">
<feFlood flood-opacity="0" result="BackgroundImageFix"/>
<feColorMatrix in="SourceAlpha" type="matrix" values="0 0 0 0 0 0 0 0 0 0 0 0 0 0 0 0 0 0 127 0"/>
<feOffset dy="25"/>
<feGaussianBlur stdDeviation="25"/>
<feColorMatrix type="matrix" values="0 0 0 0 0 0 0 0 0 0 0 0 0 0 0 0 0 0 0.1 0"/>
<feBlend mode="normal" in2="BackgroundImageFix" result="effect1_dropShadow"/>
<feBlend mode="normal" in="SourceGraphic" in2="effect1_dropShadow" result="shape"/>
</filter>
<clipPath id="clip0">
<rect width="80" height="80" fill="white" transform="translate(80 55)"/>
</clipPath>
</defs>
</svg>
