<svg width="149" height="153" viewBox="0 0 149 153" fill="none" xmlns="http://www.w3.org/2000/svg">
<g filter="url(#filter0_ddii)">
<path d="M4 75C4 56.3872 4 47.0808 6.44717 39.5492C11.3931 24.3273 23.3273 12.3931 38.5492 7.44717C46.0808 5 55.3872 5 74 5C92.6128 5 101.919 5 109.451 7.44717C124.673 12.3931 136.607 24.3273 141.553 39.5492C144 47.0808 144 56.3872 144 75C144 93.6128 144 102.919 141.553 110.451C136.607 125.673 124.673 137.607 109.451 142.553C101.919 145 92.6128 145 74 145C55.3872 145 46.0808 145 38.5492 142.553C23.3273 137.607 11.3931 125.673 6.44717 110.451C4 102.919 4 93.6128 4 75Z" fill="white"/>
<path d="M5.25 75C5.25 56.2899 5.26542 47.2313 7.63599 39.9354C12.4582 25.0941 24.0941 13.4582 38.9354 8.63599C46.2313 6.26542 55.2899 6.25 74 6.25C92.7101 6.25 101.769 6.26542 109.065 8.63599C123.906 13.4582 135.542 25.0941 140.364 39.9354C142.735 47.2313 142.75 56.2899 142.75 75C142.75 93.7101 142.735 102.769 140.364 110.065C135.542 124.906 123.906 136.542 109.065 141.364C101.769 143.735 92.7101 143.75 74 143.75C55.2899 143.75 46.2313 143.735 38.9354 141.364C24.0941 136.542 12.4582 124.906 7.63599 110.065C5.26542 102.769 5.25 93.7101 5.25 75Z" stroke="url(#paint0_linear)" stroke-opacity="0.8" stroke-width="2.5"/>
</g>
<path d="M47.1667 98.3327C51.677 98.3327 55.3333 94.6764 55.3333 90.1661C55.3333 85.6558 51.677 81.9995 47.1667 81.9995C42.6563 81.9995 39 85.6558 39 90.1661C39 94.6764 42.6563 98.3327 47.1667 98.3327Z" stroke="#195E1F" stroke-width="3" stroke-linecap="round" stroke-linejoin="round"/>
<path d="M100.833 98.3327C105.344 98.3327 109 94.6764 109 90.1661C109 85.6558 105.344 81.9995 100.833 81.9995C96.323 81.9995 92.6667 85.6558 92.6667 90.1661C92.6667 94.6764 96.323 98.3327 100.833 98.3327Z" stroke="#195E1F" stroke-width="3" stroke-linecap="round" stroke-linejoin="round"/>
<path d="M74 98.3327C78.5103 98.3327 82.1666 94.6764 82.1666 90.1661C82.1666 85.6558 78.5103 81.9995 74 81.9995C69.4897 81.9995 65.8333 85.6558 65.8333 90.1661C65.8333 94.6764 69.4897 98.3327 74 98.3327Z" stroke="#195E1F" stroke-width="3" stroke-linecap="round" stroke-linejoin="round"/>
<path d="M60.5849 110C59.8296 107.949 58.6133 106.1 57.0298 104.594C55.4464 103.088 53.5382 101.966 51.4523 101.315C49.3665 100.663 47.1589 100.5 44.9999 100.837C42.8408 101.174 40.7881 102.002 39 103.258" stroke="#195E1F" stroke-width="3" stroke-linecap="round" stroke-linejoin="round"/>
<path d="M87.4182 110C88.1731 107.95 89.389 106.1 90.9722 104.594C92.5553 103.088 94.4633 101.966 96.5489 101.315C98.6345 100.663 100.842 100.5 103.001 100.837C105.16 101.174 107.212 102.002 109 103.258" stroke="#195E1F" stroke-width="3" stroke-linecap="round" stroke-linejoin="round"/>
<path d="M87.4182 110C86.4022 107.26 84.5718 104.897 82.1731 103.228C79.7743 101.559 76.9222 100.665 74 100.665C71.0778 100.665 68.2257 101.559 65.827 103.228C63.4282 104.897 61.5978 107.26 60.5818 110" stroke="#195E1F" stroke-width="3" stroke-linecap="round" stroke-linejoin="round"/>
<path d="M81 72.6664C81 72.6664 83.3333 60.9998 92.6667 58.6665" stroke="#195E1F" stroke-width="3" stroke-linecap="round" stroke-linejoin="round"/>
<path d="M99.6667 56.333H109" stroke="#195E1F" stroke-width="3" stroke-linecap="round" stroke-linejoin="round"/>
<path d="M104.333 51.6665V60.9998" stroke="#195E1F" stroke-width="3" stroke-linecap="round" stroke-linejoin="round"/>
<path d="M67 72.6664C67 72.6664 64.6666 60.9998 55.3333 58.6665" stroke="#195E1F" stroke-width="3" stroke-linecap="round" stroke-linejoin="round"/>
<path d="M48.3333 56.333H39" stroke="#195E1F" stroke-width="3" stroke-linecap="round" stroke-linejoin="round"/>
<path d="M43.6667 51.6665V60.9998" stroke="#195E1F" stroke-width="3" stroke-linecap="round" stroke-linejoin="round"/>
<path d="M69.3333 44.6665H78.6666" stroke="#195E1F" stroke-width="3" stroke-linecap="round" stroke-linejoin="round"/>
<path d="M74 40V49.3333" stroke="#195E1F" stroke-width="3" stroke-linecap="round" stroke-linejoin="round"/>
<path d="M74 72.6664V58.6665" stroke="#195E1F" stroke-width="3" stroke-linecap="round" stroke-linejoin="round"/>
<defs>
<filter id="filter0_ddii" x="0" y="0" width="149" height="153" filterUnits="userSpaceOnUse" color-interpolation-filters="sRGB">
<feFlood flood-opacity="0" result="BackgroundImageFix"/>
<feColorMatrix in="SourceAlpha" type="matrix" values="0 0 0 0 0 0 0 0 0 0 0 0 0 0 0 0 0 0 127 0"/>
<feMorphology radius="1" operator="dilate" in="SourceAlpha" result="effect1_dropShadow"/>
<feOffset dx="1" dy="4"/>
<feGaussianBlur stdDeviation="1.5"/>
<feColorMatrix type="matrix" values="0 0 0 0 0.0980392 0 0 0 0 0.368627 0 0 0 0 0.121569 0 0 0 0.8 0"/>
<feBlend mode="normal" in2="BackgroundImageFix" result="effect1_dropShadow"/>
<feColorMatrix in="SourceAlpha" type="matrix" values="0 0 0 0 0 0 0 0 0 0 0 0 0 0 0 0 0 0 127 0"/>
<feMorphology radius="1" operator="erode" in="SourceAlpha" result="effect2_dropShadow"/>
<feOffset dy="-1"/>
<feGaussianBlur stdDeviation="2.5"/>
<feColorMatrix type="matrix" values="0 0 0 0 0.956863 0 0 0 0 0.815686 0 0 0 0 0.0666667 0 0 0 1 0"/>
<feBlend mode="normal" in2="effect1_dropShadow" result="effect2_dropShadow"/>
<feBlend mode="normal" in="SourceGraphic" in2="effect2_dropShadow" result="shape"/>
<feColorMatrix in="SourceAlpha" type="matrix" values="0 0 0 0 0 0 0 0 0 0 0 0 0 0 0 0 0 0 127 0" result="hardAlpha"/>
<feOffset dy="4"/>
<feGaussianBlur stdDeviation="2"/>
<feComposite in2="hardAlpha" operator="arithmetic" k2="-1" k3="1"/>
<feColorMatrix type="matrix" values="0 0 0 0 0.133333 0 0 0 0 0.388235 0 0 0 0 0.137255 0 0 0 1 0"/>
<feBlend mode="normal" in2="shape" result="effect3_innerShadow"/>
<feColorMatrix in="SourceAlpha" type="matrix" values="0 0 0 0 0 0 0 0 0 0 0 0 0 0 0 0 0 0 127 0" result="hardAlpha"/>
<feOffset dy="-4"/>
<feGaussianBlur stdDeviation="1.5"/>
<feComposite in2="hardAlpha" operator="arithmetic" k2="-1" k3="1"/>
<feColorMatrix type="matrix" values="0 0 0 0 0.956863 0 0 0 0 0.815686 0 0 0 0 0.0666667 0 0 0 1 0"/>
<feBlend mode="normal" in2="effect3_innerShadow" result="effect4_innerShadow"/>
</filter>
<linearGradient id="paint0_linear" x1="74" y1="5" x2="74" y2="145" gradientUnits="userSpaceOnUse">
<stop offset="0.0364583" stop-color="#195E1F" stop-opacity="0.85"/>
<stop offset="1" stop-color="#F3CF10"/>
</linearGradient>
</defs>
</svg>
