<svg width="240" height="240" viewBox="0 0 240 240" fill="none" xmlns="http://www.w3.org/2000/svg">
<g filter="url(#filter0_d)">
<path d="M50 95C50 76.3872 50 67.0808 52.4472 59.5492C57.3931 44.3273 69.3273 32.3931 84.5492 27.4472C92.0808 25 101.387 25 120 25C138.613 25 147.919 25 155.451 27.4472C170.673 32.3931 182.607 44.3273 187.553 59.5492C190 67.0808 190 76.3872 190 95C190 113.613 190 122.919 187.553 130.451C182.607 145.673 170.673 157.607 155.451 162.553C147.919 165 138.613 165 120 165C101.387 165 92.0808 165 84.5492 162.553C69.3273 157.607 57.3931 145.673 52.4472 130.451C50 122.919 50 113.613 50 95Z" fill="white"/>
</g>
<path d="M142.75 96.2468L146.92 103.753H155.19C155.642 103.747 156.086 103.875 156.465 104.122C156.843 104.37 157.139 104.725 157.314 105.141C157.49 105.558 157.536 106.018 157.448 106.461C157.36 106.905 157.141 107.312 156.82 107.63L149.227 115.917L153.433 125.583C153.617 126.026 153.658 126.515 153.549 126.982C153.441 127.449 153.189 127.87 152.829 128.186C152.469 128.503 152.019 128.698 151.542 128.746C151.065 128.793 150.585 128.69 150.17 128.45L140 122.727L129.833 128.447C129.418 128.687 128.938 128.792 128.46 128.745C127.983 128.698 127.532 128.503 127.171 128.186C126.81 127.87 126.558 127.448 126.449 126.98C126.341 126.513 126.382 126.023 126.567 125.58L130.633 116.247" stroke="#195E1F" stroke-width="5" stroke-linecap="round" stroke-linejoin="round"/>
<path d="M97.2497 96.2468L93.0797 103.753H84.8097C84.3576 103.747 83.9137 103.875 83.5352 104.122C83.1567 104.37 82.8607 104.725 82.6855 105.141C82.5102 105.558 82.4636 106.018 82.5517 106.461C82.6398 106.905 82.8585 107.312 83.1797 107.63L90.7731 115.917L86.5664 125.583C86.3825 126.026 86.3419 126.515 86.4503 126.982C86.5587 127.449 86.8106 127.87 87.1707 128.186C87.5307 128.503 87.9809 128.698 88.4578 128.746C88.9347 128.793 89.4145 128.69 89.8297 128.45L99.9997 122.727L110.166 128.447C110.582 128.687 111.062 128.792 111.54 128.745C112.017 128.698 112.468 128.503 112.829 128.186C113.19 127.87 113.442 127.448 113.55 126.98C113.659 126.513 113.618 126.023 113.433 125.58L109.366 116.247" stroke="#195E1F" stroke-width="5" stroke-linecap="round" stroke-linejoin="round"/>
<path d="M121.227 62.1363L127.857 75.3929L140.613 76.6696C140.917 76.7007 141.206 76.8173 141.447 77.0059C141.687 77.1945 141.869 77.4473 141.972 77.7352C142.074 78.023 142.093 78.334 142.026 78.6321C141.959 78.9302 141.809 79.2033 141.593 79.4196L131.087 89.9263L134.98 104.203C135.062 104.504 135.055 104.822 134.96 105.119C134.865 105.415 134.687 105.678 134.446 105.876C134.204 106.073 133.911 106.197 133.601 106.231C133.292 106.265 132.978 106.209 132.7 106.07L119.783 99.6129L106.867 106.07C106.588 106.208 106.275 106.264 105.966 106.229C105.657 106.194 105.365 106.071 105.124 105.873C104.883 105.676 104.705 105.413 104.61 105.117C104.515 104.821 104.508 104.503 104.59 104.203L108.483 89.9263L97.9766 79.4196C97.7598 79.2034 97.6088 78.9301 97.5413 78.6315C97.4738 78.3328 97.4924 78.0212 97.5951 77.7327C97.6977 77.4443 97.8802 77.1909 98.1212 77.0021C98.3623 76.8133 98.6519 76.6968 98.9566 76.6663L111.71 75.3896L118.333 62.1363C118.466 61.8663 118.673 61.6391 118.928 61.4802C119.184 61.3213 119.479 61.2371 119.78 61.2371C120.081 61.2371 120.376 61.3213 120.632 61.4802C120.887 61.6391 121.093 61.8663 121.227 62.1363Z" stroke="#195E1F" stroke-width="5" stroke-linecap="round" stroke-linejoin="round"/>
<defs>
<filter id="filter0_d" x="0" y="0" width="240" height="240" filterUnits="userSpaceOnUse" color-interpolation-filters="sRGB">
<feFlood flood-opacity="0" result="BackgroundImageFix"/>
<feColorMatrix in="SourceAlpha" type="matrix" values="0 0 0 0 0 0 0 0 0 0 0 0 0 0 0 0 0 0 127 0"/>
<feOffset dy="25"/>
<feGaussianBlur stdDeviation="25"/>
<feColorMatrix type="matrix" values="0 0 0 0 0 0 0 0 0 0 0 0 0 0 0 0 0 0 0.1 0"/>
<feBlend mode="normal" in2="BackgroundImageFix" result="effect1_dropShadow"/>
<feBlend mode="normal" in="SourceGraphic" in2="effect1_dropShadow" result="shape"/>
</filter>
</defs>
</svg>
