<svg width="149" height="153" viewBox="0 0 149 153" fill="none" xmlns="http://www.w3.org/2000/svg">
<g filter="url(#filter0_ddii)">
<path d="M4 75C4 56.3872 4 47.0808 6.44717 39.5492C11.3931 24.3273 23.3273 12.3931 38.5492 7.44717C46.0808 5 55.3872 5 74 5C92.6128 5 101.919 5 109.451 7.44717C124.673 12.3931 136.607 24.3273 141.553 39.5492C144 47.0808 144 56.3872 144 75C144 93.6128 144 102.919 141.553 110.451C136.607 125.673 124.673 137.607 109.451 142.553C101.919 145 92.6128 145 74 145C55.3872 145 46.0808 145 38.5492 142.553C23.3273 137.607 11.3931 125.673 6.44717 110.451C4 102.919 4 93.6128 4 75Z" fill="white"/>
<path d="M5.25 75C5.25 56.2899 5.26542 47.2313 7.63599 39.9354C12.4582 25.0941 24.0941 13.4582 38.9354 8.63599C46.2313 6.26542 55.2899 6.25 74 6.25C92.7101 6.25 101.769 6.26542 109.065 8.63599C123.906 13.4582 135.542 25.0941 140.364 39.9354C142.735 47.2313 142.75 56.2899 142.75 75C142.75 93.7101 142.735 102.769 140.364 110.065C135.542 124.906 123.906 136.542 109.065 141.364C101.769 143.735 92.7101 143.75 74 143.75C55.2899 143.75 46.2313 143.735 38.9354 141.364C24.0941 136.542 12.4582 124.906 7.63599 110.065C5.26542 102.769 5.25 93.7101 5.25 75Z" stroke="url(#paint0_linear)" stroke-opacity="0.8" stroke-width="2.5"/>
</g>
<path d="M95.2382 75.7031L99.1311 82.9297H106.852C107.274 82.923 107.688 83.0467 108.041 83.2847C108.395 83.5228 108.671 83.8645 108.835 84.2657C108.998 84.667 109.042 85.1096 108.959 85.5365C108.877 85.9635 108.673 86.3553 108.373 86.6617L101.284 94.6391L105.212 103.945C105.383 104.371 105.421 104.842 105.32 105.291C105.219 105.741 104.984 106.146 104.647 106.451C104.311 106.755 103.891 106.944 103.446 106.989C103.001 107.035 102.553 106.935 102.165 106.705L92.671 101.195L83.1799 106.702C82.7923 106.933 82.3439 107.034 81.898 106.989C81.4521 106.944 81.0311 106.756 80.6943 106.451C80.3575 106.146 80.122 105.74 80.0208 105.29C79.9196 104.84 79.958 104.368 80.1304 103.942L83.9268 94.9568" stroke="#195E1F" stroke-width="3" stroke-linecap="round" stroke-linejoin="round"/>
<path d="M52.7618 75.7031L48.8689 82.9297H41.1485C40.7264 82.923 40.312 83.0467 39.9587 83.2847C39.6053 83.5228 39.329 83.8645 39.1654 84.2657C39.0018 84.667 38.9583 85.1096 39.0405 85.5365C39.1227 85.9635 39.3269 86.3553 39.6268 86.6617L46.7155 94.6391L42.7884 103.945C42.6167 104.371 42.5788 104.842 42.68 105.291C42.7812 105.741 43.0164 106.146 43.3525 106.451C43.6887 106.755 44.1089 106.944 44.5541 106.989C44.9994 107.035 45.4473 106.935 45.8349 106.705L55.329 101.195L64.82 106.702C65.2077 106.933 65.6561 107.034 66.102 106.989C66.5479 106.944 66.9689 106.756 67.3057 106.451C67.6424 106.146 67.878 105.74 67.9792 105.29C68.0803 104.84 68.042 104.368 67.8696 103.942L64.0732 94.9568" stroke="#195E1F" stroke-width="3" stroke-linecap="round" stroke-linejoin="round"/>
<path d="M75.1454 42.8656L81.3348 55.6276L93.2437 56.8567C93.5275 56.8866 93.7972 56.9989 94.0216 57.1804C94.246 57.362 94.416 57.6054 94.5117 57.8825C94.6075 58.1595 94.6251 58.4589 94.5626 58.7459C94.5001 59.0329 94.36 59.2958 94.1586 59.504L84.3501 69.6186L87.9847 83.3626C88.0613 83.652 88.055 83.9582 87.9664 84.244C87.8779 84.5298 87.711 84.7831 87.4858 84.9732C87.2607 85.1632 86.987 85.282 86.6978 85.3151C86.4086 85.3482 86.1163 85.2942 85.8563 85.1596L73.798 78.9439L61.7397 85.1596C61.4797 85.2932 61.1878 85.3465 60.8992 85.3129C60.6106 85.2794 60.3375 85.1605 60.1129 84.9706C59.8883 84.7807 59.7217 84.5279 59.6332 84.2425C59.5448 83.9572 59.5382 83.6516 59.6143 83.3626L63.2489 69.6186L53.4405 59.504C53.2381 59.2959 53.0972 59.0328 53.0341 58.7453C52.9711 58.4578 52.9885 58.1578 53.0843 57.8801C53.1802 57.6024 53.3505 57.3585 53.5755 57.1768C53.8005 56.995 54.071 56.8829 54.3553 56.8534L66.2612 55.6244L72.4443 42.8656C72.5687 42.6058 72.7611 42.387 72.9998 42.234C73.2384 42.0811 73.5139 42 73.7949 42C74.0759 42 74.3513 42.0811 74.5899 42.234C74.8286 42.387 75.021 42.6058 75.1454 42.8656Z" stroke="#195E1F" stroke-width="3" stroke-linecap="round" stroke-linejoin="round"/>
<defs>
<filter id="filter0_ddii" x="0" y="0" width="149" height="153" filterUnits="userSpaceOnUse" color-interpolation-filters="sRGB">
<feFlood flood-opacity="0" result="BackgroundImageFix"/>
<feColorMatrix in="SourceAlpha" type="matrix" values="0 0 0 0 0 0 0 0 0 0 0 0 0 0 0 0 0 0 127 0"/>
<feMorphology radius="1" operator="dilate" in="SourceAlpha" result="effect1_dropShadow"/>
<feOffset dx="1" dy="4"/>
<feGaussianBlur stdDeviation="1.5"/>
<feColorMatrix type="matrix" values="0 0 0 0 0.0980392 0 0 0 0 0.368627 0 0 0 0 0.121569 0 0 0 0.8 0"/>
<feBlend mode="normal" in2="BackgroundImageFix" result="effect1_dropShadow"/>
<feColorMatrix in="SourceAlpha" type="matrix" values="0 0 0 0 0 0 0 0 0 0 0 0 0 0 0 0 0 0 127 0"/>
<feMorphology radius="1" operator="erode" in="SourceAlpha" result="effect2_dropShadow"/>
<feOffset dy="-1"/>
<feGaussianBlur stdDeviation="2.5"/>
<feColorMatrix type="matrix" values="0 0 0 0 0.956863 0 0 0 0 0.815686 0 0 0 0 0.0666667 0 0 0 1 0"/>
<feBlend mode="normal" in2="effect1_dropShadow" result="effect2_dropShadow"/>
<feBlend mode="normal" in="SourceGraphic" in2="effect2_dropShadow" result="shape"/>
<feColorMatrix in="SourceAlpha" type="matrix" values="0 0 0 0 0 0 0 0 0 0 0 0 0 0 0 0 0 0 127 0" result="hardAlpha"/>
<feOffset dy="4"/>
<feGaussianBlur stdDeviation="2"/>
<feComposite in2="hardAlpha" operator="arithmetic" k2="-1" k3="1"/>
<feColorMatrix type="matrix" values="0 0 0 0 0.133333 0 0 0 0 0.388235 0 0 0 0 0.137255 0 0 0 1 0"/>
<feBlend mode="normal" in2="shape" result="effect3_innerShadow"/>
<feColorMatrix in="SourceAlpha" type="matrix" values="0 0 0 0 0 0 0 0 0 0 0 0 0 0 0 0 0 0 127 0" result="hardAlpha"/>
<feOffset dy="-4"/>
<feGaussianBlur stdDeviation="1.5"/>
<feComposite in2="hardAlpha" operator="arithmetic" k2="-1" k3="1"/>
<feColorMatrix type="matrix" values="0 0 0 0 0.956863 0 0 0 0 0.815686 0 0 0 0 0.0666667 0 0 0 1 0"/>
<feBlend mode="normal" in2="effect3_innerShadow" result="effect4_innerShadow"/>
</filter>
<linearGradient id="paint0_linear" x1="74" y1="5" x2="74" y2="145" gradientUnits="userSpaceOnUse">
<stop offset="0.0364583" stop-color="#195E1F" stop-opacity="0.85"/>
<stop offset="1" stop-color="#F3CF10"/>
</linearGradient>
</defs>
</svg>
